<?xml version="1.0" encoding="UTF-8" standalone="no"?><svg xmlns="http://www.w3.org/2000/svg" xmlns:xlink="http://www.w3.org/1999/xlink" contentScriptType="application/ecmascript" contentStyleType="text/css" height="923px" preserveAspectRatio="none" style="width:832px;height:923px;" version="1.1" viewBox="0 0 832 923" width="832px" zoomAndPan="magnify"><defs><filter height="300%" id="f14d5ngxdxtuc4" width="300%" x="-1" y="-1"><feGaussianBlur result="blurOut" stdDeviation="2.0"/><feColorMatrix in="blurOut" result="blurOut2" type="matrix" values="0 0 0 0 0 0 0 0 0 0 0 0 0 0 0 0 0 0 .4 0"/><feOffset dx="4.0" dy="4.0" in="blurOut2" result="blurOut3"/><feBlend in="SourceGraphic" in2="blurOut3" mode="normal"/></filter></defs><g><ellipse cx="266.5" cy="20" fill="#000000" filter="url(#f14d5ngxdxtuc4)" rx="10" ry="10" style="stroke: none; stroke-width: 1.0;"/><polygon fill="#FBFB77" filter="url(#f14d5ngxdxtuc4)" points="339.5,54.418,339.5,79.5508,629.5,79.5508,629.5,64.418,619.5,54.418,339.5,54.418" style="stroke: #A80036; stroke-width: 1.0;"/><polygon fill="#FBFB77" points="339.5,54.418,339.5,62.9844,319.5,66.9844,339.5,70.9844,339.5,79.5508,629.5,79.5508,629.5,64.418,619.5,54.418,339.5,54.418" style="stroke: #A80036; stroke-width: 1.0;"/><line style="stroke: #A80036; stroke-width: 1.0;" x1="619.5" x2="619.5" y1="54.418" y2="64.418"/><line style="stroke: #A80036; stroke-width: 1.0;" x1="629.5" x2="619.5" y1="64.418" y2="64.418"/><text fill="#000000" font-family="sans-serif" font-size="13" lengthAdjust="spacingAndGlyphs" textLength="269" x="345.5" y="71.4849">will build ts-jest before creating the bundle</text><rect fill="#FEFECE" filter="url(#f14d5ngxdxtuc4)" height="33.9688" rx="12.5" ry="12.5" style="stroke: #A80036; stroke-width: 1.5;" width="106" x="213.5" y="50"/><text fill="#000000" font-family="sans-serif" font-size="12" lengthAdjust="spacingAndGlyphs" textLength="86" x="223.5" y="71.1387">bundle ts-jest</text><polygon fill="#FBFB77" filter="url(#f14d5ngxdxtuc4)" points="361.5,100.8203,361.5,141.0859,613.5,141.0859,613.5,110.8203,603.5,100.8203,361.5,100.8203" style="stroke: #A80036; stroke-width: 1.0;"/><polygon fill="#FBFB77" points="361.5,100.8203,361.5,116.9531,341.5,120.9531,361.5,124.9531,361.5,141.0859,613.5,141.0859,613.5,110.8203,603.5,100.8203,361.5,100.8203" style="stroke: #A80036; stroke-width: 1.0;"/><line style="stroke: #A80036; stroke-width: 1.0;" x1="603.5" x2="603.5" y1="100.8203" y2="110.8203"/><line style="stroke: #A80036; stroke-width: 1.0;" x1="613.5" x2="603.5" y1="110.8203" y2="110.8203"/><text fill="#000000" font-family="sans-serif" font-size="13" lengthAdjust="spacingAndGlyphs" textLength="231" x="367.5" y="117.8872">`e2e/__workdir_symlink__` links to it</text><text fill="#000000" font-family="sans-serif" font-size="13" lengthAdjust="spacingAndGlyphs" textLength="171" x="367.5" y="133.02">except on CI environments</text><rect fill="#FEFECE" filter="url(#f14d5ngxdxtuc4)" height="33.9688" rx="12.5" ry="12.5" style="stroke: #A80036; stroke-width: 1.5;" width="150" x="191.5" y="103.9688"/><text fill="#000000" font-family="sans-serif" font-size="12" lengthAdjust="spacingAndGlyphs" textLength="130" x="201.5" y="125.1074">create temp work dir</text><polygon fill="#FBFB77" filter="url(#f14d5ngxdxtuc4)" points="541,493.2148,541,518.3477,810,518.3477,810,503.2148,800,493.2148,541,493.2148" style="stroke: #A80036; stroke-width: 1.0;"/><line style="stroke: #A80036; stroke-width: 1.0;" x1="800" x2="800" y1="493.2148" y2="503.2148"/><line style="stroke: #A80036; stroke-width: 1.0;" x1="810" x2="800" y1="503.2148" y2="503.2148"/><text fill="#000000" font-family="sans-serif" font-size="13" lengthAdjust="spacingAndGlyphs" textLength="248" x="547" y="510.2817">templates are in `e2e/__templates__/`</text><polygon fill="#FEFECE" filter="url(#f14d5ngxdxtuc4)" points="194,205.0859,339,205.0859,351,217.0859,339,229.0859,194,229.0859,182,217.0859,194,205.0859" style="stroke: #A80036; stroke-width: 1.5;"/><text fill="#000000" font-family="sans-serif" font-size="11" lengthAdjust="spacingAndGlyphs" textLength="145" x="194" y="220.894">template's build directory</text><text fill="#000000" font-family="sans-serif" font-size="11" lengthAdjust="spacingAndGlyphs" textLength="34" x="148" y="214.4917">exists</text><text fill="#000000" font-family="sans-serif" font-size="11" lengthAdjust="spacingAndGlyphs" textLength="56" x="351" y="214.4917">not exists</text><rect fill="#FEFECE" filter="url(#f14d5ngxdxtuc4)" height="33.9688" rx="12.5" ry="12.5" style="stroke: #A80036; stroke-width: 1.5;" width="200" x="72" y="239.0859"/><text fill="#000000" font-family="sans-serif" font-size="12" lengthAdjust="spacingAndGlyphs" textLength="180" x="82" y="260.2246">wipe but `node_modules` dir</text><rect fill="#FEFECE" filter="url(#f14d5ngxdxtuc4)" height="33.9688" rx="12.5" ry="12.5" style="stroke: #A80036; stroke-width: 1.5;" width="61" x="330.5" y="239.0859"/><text fill="#000000" font-family="sans-serif" font-size="12" lengthAdjust="spacingAndGlyphs" textLength="41" x="340.5" y="260.2246">create</text><polygon fill="#FEFECE" filter="url(#f14d5ngxdxtuc4)" points="266.5,279.0547,278.5,291.0547,266.5,303.0547,254.5,291.0547,266.5,279.0547" style="stroke: #A80036; stroke-width: 1.5;"/><rect fill="#FEFECE" filter="url(#f14d5ngxdxtuc4)" height="33.9688" rx="12.5" ry="12.5" style="stroke: #A80036; stroke-width: 1.5;" width="290" x="121.5" y="323.0547"/><text fill="#000000" font-family="sans-serif" font-size="12" lengthAdjust="spacingAndGlyphs" textLength="270" x="131.5" y="344.1934">copy files from template's dir to its build dir</text><rect fill="#FEFECE" filter="url(#f14d5ngxdxtuc4)" height="33.9688" rx="12.5" ry="12.5" style="stroke: #A80036; stroke-width: 1.5;" width="114" x="209.5" y="425.4258"/><text fill="#000000" font-family="sans-serif" font-size="12" lengthAdjust="spacingAndGlyphs" textLength="94" x="219.5" y="446.5645">read metadata</text><polygon fill="#FEFECE" filter="url(#f14d5ngxdxtuc4)" points="95.5,479.3945,189.5,479.3945,201.5,491.3945,189.5,503.3945,95.5,503.3945,83.5,491.3945,95.5,479.3945" style="stroke: #A80036; stroke-width: 1.5;"/><text fill="#000000" font-family="sans-serif" font-size="11" lengthAdjust="spacingAndGlyphs" textLength="73" x="146.5" y="513.605">has changed</text><text fill="#000000" font-family="sans-serif" font-size="11" lengthAdjust="spacingAndGlyphs" textLength="94" x="95.5" y="495.2026">package lock file</text><rect fill="#FEFECE" filter="url(#f14d5ngxdxtuc4)" height="33.9688" rx="12.5" ry="12.5" style="stroke: #A80036; stroke-width: 1.5;" width="193" x="46" y="536.1992"/><text fill="#000000" font-family="sans-serif" font-size="12" lengthAdjust="spacingAndGlyphs" textLength="173" x="56" y="557.3379">remove `node_modules` dir</text><rect fill="#FEFECE" filter="url(#f14d5ngxdxtuc4)" height="33.9688" rx="12.5" ry="12.5" style="stroke: #A80036; stroke-width: 1.5;" width="129" x="78" y="590.168"/><text fill="#000000" font-family="sans-serif" font-size="12" lengthAdjust="spacingAndGlyphs" textLength="109" x="88" y="611.3066">npm install (or ci)</text><rect fill="#FEFECE" filter="url(#f14d5ngxdxtuc4)" height="33.9688" rx="12.5" ry="12.5" style="stroke: #A80036; stroke-width: 1.5;" width="178" x="53.5" y="644.1367"/><text fill="#000000" font-family="sans-serif" font-size="12" lengthAdjust="spacingAndGlyphs" textLength="158" x="63.5" y="665.2754">npm install ts-jest bundle</text><polygon fill="#FEFECE" filter="url(#f14d5ngxdxtuc4)" points="309,479.3945,387,479.3945,399,491.3945,387,503.3945,309,503.3945,297,491.3945,309,479.3945" style="stroke: #A80036; stroke-width: 1.5;"/><text fill="#000000" font-family="sans-serif" font-size="11" lengthAdjust="spacingAndGlyphs" textLength="73" x="352" y="513.605">has changed</text><text fill="#000000" font-family="sans-serif" font-size="11" lengthAdjust="spacingAndGlyphs" textLength="78" x="309" y="495.2026">ts-jest bundle</text><text fill="#000000" font-family="sans-serif" font-size="11" lengthAdjust="spacingAndGlyphs" textLength="87" x="399" y="488.8003">hasn't changed</text><rect fill="#FEFECE" filter="url(#f14d5ngxdxtuc4)" height="33.9688" rx="12.5" ry="12.5" style="stroke: #A80036; stroke-width: 1.5;" width="178" x="259" y="536.1992"/><text fill="#000000" font-family="sans-serif" font-size="12" lengthAdjust="spacingAndGlyphs" textLength="158" x="269" y="557.3379">npm install ts-jest bundle</text><rect fill="#FEFECE" filter="url(#f14d5ngxdxtuc4)" height="33.9688" rx="12.5" ry="12.5" style="stroke: #A80036; stroke-width: 1.5;" width="172" x="180.5" y="718.1055"/><text fill="#000000" font-family="sans-serif" font-size="12" lengthAdjust="spacingAndGlyphs" textLength="152" x="190.5" y="739.2441">write updated metadata</text><polygon fill="#FEFECE" filter="url(#f14d5ngxdxtuc4)" points="219.5,377.0234,313.5,377.0234,325.5,389.0234,313.5,401.0234,219.5,401.0234,207.5,389.0234,219.5,377.0234" style="stroke: #A80036; stroke-width: 1.5;"/><text fill="#000000" font-family="sans-serif" font-size="11" lengthAdjust="spacingAndGlyphs" textLength="34" x="270.5" y="411.2339">exists</text><text fill="#000000" font-family="sans-serif" font-size="11" lengthAdjust="spacingAndGlyphs" textLength="94" x="219.5" y="392.8315">package lock file</text><text fill="#000000" font-family="sans-serif" font-size="11" lengthAdjust="spacingAndGlyphs" textLength="56" x="325.5" y="386.4292">not exists</text><polygon fill="#FEFECE" filter="url(#f14d5ngxdxtuc4)" points="266.5,772.0742,278.5,784.0742,266.5,796.0742,254.5,784.0742,266.5,772.0742" style="stroke: #A80036; stroke-width: 1.5;"/><polygon fill="#FEFECE" filter="url(#f14d5ngxdxtuc4)" points="216,161.0859,317,161.0859,329,173.0859,317,185.0859,216,185.0859,204,173.0859,216,161.0859" style="stroke: #A80036; stroke-width: 1.5;"/><text fill="#000000" font-family="sans-serif" font-size="11" lengthAdjust="spacingAndGlyphs" textLength="101" x="216" y="176.894">for each template</text><text fill="#000000" font-family="sans-serif" font-size="11" lengthAdjust="spacingAndGlyphs" textLength="28" x="176" y="170.4917">done</text><rect fill="#FEFECE" filter="url(#f14d5ngxdxtuc4)" height="33.9688" rx="12.5" ry="12.5" style="stroke: #A80036; stroke-width: 1.5;" width="140" x="196.5" y="838.0742"/><text fill="#000000" font-family="sans-serif" font-size="12" lengthAdjust="spacingAndGlyphs" textLength="120" x="206.5" y="859.2129">all templates ready</text><ellipse cx="266.5" cy="902.043" fill="none" filter="url(#f14d5ngxdxtuc4)" rx="10" ry="10" style="stroke: #000000; stroke-width: 1.0;"/><ellipse cx="267" cy="902.543" fill="#000000" filter="url(#f14d5ngxdxtuc4)" rx="6" ry="6" style="stroke: none; stroke-width: 1.0;"/><line style="stroke: #A80036; stroke-width: 1.5;" x1="266.5" x2="266.5" y1="30" y2="50"/><polygon fill="#A80036" points="262.5,40,266.5,50,270.5,40,266.5,44" style="stroke: #A80036; stroke-width: 1.0;"/><line style="stroke: #A80036; stroke-width: 1.5;" x1="266.5" x2="266.5" y1="83.9688" y2="103.9688"/><polygon fill="#A80036" points="262.5,93.9688,266.5,103.9688,270.5,93.9688,266.5,97.9688" style="stroke: #A80036; stroke-width: 1.0;"/><line style="stroke: #A80036; stroke-width: 1.5;" x1="182" x2="172" y1="217.0859" y2="217.0859"/><line style="stroke: #A80036; stroke-width: 1.5;" x1="172" x2="172" y1="217.0859" y2="239.0859"/><polygon fill="#A80036" points="168,229.0859,172,239.0859,176,229.0859,172,233.0859" style="stroke: #A80036; stroke-width: 1.0;"/><line style="stroke: #A80036; stroke-width: 1.5;" x1="351" x2="361" y1="217.0859" y2="217.0859"/><line style="stroke: #A80036; stroke-width: 1.5;" x1="361" x2="361" y1="217.0859" y2="239.0859"/><polygon fill="#A80036" points="357,229.0859,361,239.0859,365,229.0859,361,233.0859" style="stroke: #A80036; stroke-width: 1.0;"/><line style="stroke: #A80036; stroke-width: 1.5;" x1="172" x2="172" y1="273.0547" y2="291.0547"/><line style="stroke: #A80036; stroke-width: 1.5;" x1="172" x2="254.5" y1="291.0547" y2="291.0547"/><polygon fill="#A80036" points="244.5,287.0547,254.5,291.0547,244.5,295.0547,248.5,291.0547" style="stroke: #A80036; stroke-width: 1.0;"/><line style="stroke: #A80036; stroke-width: 1.5;" x1="361" x2="361" y1="273.0547" y2="291.0547"/><line style="stroke: #A80036; stroke-width: 1.5;" x1="361" x2="278.5" y1="291.0547" y2="291.0547"/><polygon fill="#A80036" points="288.5,287.0547,278.5,291.0547,288.5,295.0547,284.5,291.0547" style="stroke: #A80036; stroke-width: 1.0;"/><line style="stroke: #A80036; stroke-width: 1.5;" x1="266.5" x2="266.5" y1="303.0547" y2="323.0547"/><polygon fill="#A80036" points="262.5,313.0547,266.5,323.0547,270.5,313.0547,266.5,317.0547" style="stroke: #A80036; stroke-width: 1.0;"/><line style="stroke: #A80036; stroke-width: 1.5;" x1="142.5" x2="142.5" y1="570.168" y2="590.168"/><polygon fill="#A80036" points="138.5,580.168,142.5,590.168,146.5,580.168,142.5,584.168" style="stroke: #A80036; stroke-width: 1.0;"/><line style="stroke: #A80036; stroke-width: 1.5;" x1="142.5" x2="142.5" y1="624.1367" y2="644.1367"/><polygon fill="#A80036" points="138.5,634.1367,142.5,644.1367,146.5,634.1367,142.5,638.1367" style="stroke: #A80036; stroke-width: 1.0;"/><line style="stroke: #A80036; stroke-width: 1.5;" x1="142.5" x2="142.5" y1="503.3945" y2="536.1992"/><polygon fill="#A80036" points="138.5,526.1992,142.5,536.1992,146.5,526.1992,142.5,530.1992" style="stroke: #A80036; stroke-width: 1.0;"/><line style="stroke: #A80036; stroke-width: 1.5;" x1="142.5" x2="142.5" y1="678.1055" y2="698.1055"/><polygon fill="#A80036" points="138.5,688.1055,142.5,698.1055,146.5,688.1055,142.5,692.1055" style="stroke: #A80036; stroke-width: 1.0;"/><line style="stroke: #A80036; stroke-width: 1.5;" x1="348" x2="348" y1="503.3945" y2="536.1992"/><polygon fill="#A80036" points="344,526.1992,348,536.1992,352,526.1992,348,530.1992" style="stroke: #A80036; stroke-width: 1.0;"/><line style="stroke: #A80036; stroke-width: 1.5;" x1="348" x2="348" y1="570.168" y2="698.1055"/><polygon fill="#A80036" points="344,688.1055,348,698.1055,352,688.1055,348,692.1055" style="stroke: #A80036; stroke-width: 1.0;"/><line style="stroke: #A80036; stroke-width: 1.5;" x1="201.5" x2="297" y1="491.3945" y2="491.3945"/><polygon fill="#A80036" points="287,487.3945,297,491.3945,287,495.3945,291,491.3945" style="stroke: #A80036; stroke-width: 1.0;"/><line style="stroke: #A80036; stroke-width: 1.5;" x1="266.5" x2="266.5" y1="459.3945" y2="464.3945"/><line style="stroke: #A80036; stroke-width: 1.5;" x1="266.5" x2="142.5" y1="464.3945" y2="464.3945"/><line style="stroke: #A80036; stroke-width: 1.5;" x1="142.5" x2="142.5" y1="464.3945" y2="479.3945"/><polygon fill="#A80036" points="138.5,469.3945,142.5,479.3945,146.5,469.3945,142.5,473.3945" style="stroke: #A80036; stroke-width: 1.0;"/><line style="stroke: #A80036; stroke-width: 1.5;" x1="399" x2="472" y1="491.3945" y2="491.3945"/><line style="stroke: #A80036; stroke-width: 1.5;" x1="472" x2="472" y1="491.3945" y2="698.1055"/><polygon fill="#A80036" points="468,688.1055,472,698.1055,476,688.1055,472,692.1055" style="stroke: #A80036; stroke-width: 1.0;"/><line style="stroke: #A80036; stroke-width: 1.5;" x1="142.5" x2="472" y1="698.1055" y2="698.1055"/><line style="stroke: #A80036; stroke-width: 1.5;" x1="266.5" x2="266.5" y1="698.1055" y2="718.1055"/><polygon fill="#A80036" points="262.5,708.1055,266.5,718.1055,270.5,708.1055,266.5,712.1055" style="stroke: #A80036; stroke-width: 1.0;"/><line style="stroke: #A80036; stroke-width: 1.5;" x1="266.5" x2="266.5" y1="401.0234" y2="425.4258"/><polygon fill="#A80036" points="262.5,415.4258,266.5,425.4258,270.5,415.4258,266.5,419.4258" style="stroke: #A80036; stroke-width: 1.0;"/><line style="stroke: #A80036; stroke-width: 1.5;" x1="325.5" x2="497" y1="389.0234" y2="389.0234"/><polygon fill="#A80036" points="493,593.75,497,603.75,501,593.75,497,597.75" style="stroke: #A80036; stroke-width: 1.5;"/><line style="stroke: #A80036; stroke-width: 1.5;" x1="497" x2="497" y1="389.0234" y2="784.0742"/><line style="stroke: #A80036; stroke-width: 1.5;" x1="497" x2="278.5" y1="784.0742" y2="784.0742"/><polygon fill="#A80036" points="288.5,780.0742,278.5,784.0742,288.5,788.0742,284.5,784.0742" style="stroke: #A80036; stroke-width: 1.0;"/><line style="stroke: #A80036; stroke-width: 1.5;" x1="266.5" x2="266.5" y1="752.0742" y2="772.0742"/><polygon fill="#A80036" points="262.5,762.0742,266.5,772.0742,270.5,762.0742,266.5,766.0742" style="stroke: #A80036; stroke-width: 1.0;"/><line style="stroke: #A80036; stroke-width: 1.5;" x1="266.5" x2="266.5" y1="357.0234" y2="377.0234"/><polygon fill="#A80036" points="262.5,367.0234,266.5,377.0234,270.5,367.0234,266.5,371.0234" style="stroke: #A80036; stroke-width: 1.0;"/><line style="stroke: #A80036; stroke-width: 1.5;" x1="266.5" x2="266.5" y1="185.0859" y2="205.0859"/><polygon fill="#A80036" points="262.5,195.0859,266.5,205.0859,270.5,195.0859,266.5,199.0859" style="stroke: #A80036; stroke-width: 1.0;"/><line style="stroke: #A80036; stroke-width: 1.5;" x1="266.5" x2="266.5" y1="796.0742" y2="806.0742"/><line style="stroke: #A80036; stroke-width: 1.5;" x1="266.5" x2="521" y1="806.0742" y2="806.0742"/><polygon fill="#A80036" points="517,515.7813,521,505.7813,525,515.7813,521,511.7813" style="stroke: #A80036; stroke-width: 1.5;"/><line style="stroke: #A80036; stroke-width: 1.5;" x1="521" x2="521" y1="173.0859" y2="806.0742"/><line style="stroke: #A80036; stroke-width: 1.5;" x1="521" x2="329" y1="173.0859" y2="173.0859"/><polygon fill="#A80036" points="339,169.0859,329,173.0859,339,177.0859,335,173.0859" style="stroke: #A80036; stroke-width: 1.0;"/><line style="stroke: #A80036; stroke-width: 1.5;" x1="204" x2="24" y1="173.0859" y2="173.0859"/><polygon fill="#A80036" points="20,501.7813,24,511.7813,28,501.7813,24,505.7813" style="stroke: #A80036; stroke-width: 1.5;"/><line style="stroke: #A80036; stroke-width: 1.5;" x1="24" x2="24" y1="173.0859" y2="818.0742"/><line style="stroke: #A80036; stroke-width: 1.5;" x1="24" x2="266.5" y1="818.0742" y2="818.0742"/><line style="stroke: #A80036; stroke-width: 1.5;" x1="266.5" x2="266.5" y1="818.0742" y2="838.0742"/><polygon fill="#A80036" points="262.5,828.0742,266.5,838.0742,270.5,828.0742,266.5,832.0742" style="stroke: #A80036; stroke-width: 1.0;"/><line style="stroke: #A80036; stroke-width: 1.5;" x1="266.5" x2="266.5" y1="137.9375" y2="161.0859"/><polygon fill="#A80036" points="262.5,151.0859,266.5,161.0859,270.5,151.0859,266.5,155.0859" style="stroke: #A80036; stroke-width: 1.0;"/><line style="stroke: #A80036; stroke-width: 1.5;" x1="266.5" x2="266.5" y1="872.043" y2="892.043"/><polygon fill="#A80036" points="262.5,882.043,266.5,892.043,270.5,882.043,266.5,886.043" style="stroke: #A80036; stroke-width: 1.0;"/><!--
@startuml


start

:bundle ts-jest;
note right
  will build ts-jest before creating the bundle
end note

:create temp work dir;
note right
  `e2e/~__workdir_symlink__` links to it
  except on CI environments
end note

while (for each template)
  note right
    templates are in `e2e/~__templates__/`
  end note

  if (template's build directory) then (exists)
    :wipe but `node_modules` dir;
  else (not exists)
    :create;
  endif

  :copy files from template's dir to its build dir;

  if (package lock file) then (exists)
    :read metadata;

    if (package lock file) then (has changed)
      :remove `node_modules` dir;

      :npm install (or ci);

      :npm install ts-jest bundle;

    else if (ts-jest bundle) then (has changed)
      :npm install ts-jest bundle;

    else (hasn't changed)
    endif
    :write updated metadata;

  else (not exists)
  endif

endwhile (done)

:all templates ready;

stop


@enduml

PlantUML version 1.2017.15(Mon Jul 03 16:45:34 UTC 2017)
(GPL source distribution)
Java Runtime: OpenJDK Runtime Environment
JVM: OpenJDK 64-Bit Server VM
Java Version: 1.8.0_252-b09
Operating System: Linux
OS Version: 5.3.0-1032-azure
Default Encoding: UTF-8
Language: en
Country: null
--></g></svg>