<?xml version="1.0" encoding="UTF-8" standalone="no"?><svg xmlns="http://www.w3.org/2000/svg" xmlns:xlink="http://www.w3.org/1999/xlink" contentScriptType="application/ecmascript" contentStyleType="text/css" height="572px" preserveAspectRatio="none" style="width:412px;height:572px;" version="1.1" viewBox="0 0 412 572" width="412px" zoomAndPan="magnify"><defs><filter height="300%" id="f17hjbfewotbn1" width="300%" x="-1" y="-1"><feGaussianBlur result="blurOut" stdDeviation="2.0"/><feColorMatrix in="blurOut" result="blurOut2" type="matrix" values="0 0 0 0 0 0 0 0 0 0 0 0 0 0 0 0 0 0 .4 0"/><feOffset dx="4.0" dy="4.0" in="blurOut2" result="blurOut3"/><feBlend in="SourceGraphic" in2="blurOut3" mode="normal"/></filter></defs><g><ellipse cx="207" cy="20" fill="#000000" filter="url(#f17hjbfewotbn1)" rx="10" ry="10" style="stroke: none; stroke-width: 1.0;"/><rect fill="#FEFECE" filter="url(#f17hjbfewotbn1)" height="34.1328" rx="12.5" ry="12.5" style="stroke: #A80036; stroke-width: 1.5;" width="93" x="160.5" y="50"/><text fill="#000000" font-family="sans-serif" font-size="12" lengthAdjust="spacingAndGlyphs" textLength="73" x="170.5" y="71.6016">require('file')</text><polygon fill="#FEFECE" filter="url(#f17hjbfewotbn1)" points="125,152.6104,289,152.6104,301,164.6104,289,176.6104,125,176.6104,113,164.6104,125,152.6104" style="stroke: #A80036; stroke-width: 1.5;"/><text fill="#000000" font-family="sans-serif" font-size="11" lengthAdjust="spacingAndGlyphs" textLength="164" x="125" y="168.7676">transformer has getCacheKey?</text><text fill="#000000" font-family="sans-serif" font-size="11" lengthAdjust="spacingAndGlyphs" textLength="18" x="95" y="162.29">yes</text><text fill="#000000" font-family="sans-serif" font-size="11" lengthAdjust="spacingAndGlyphs" textLength="14" x="301" y="162.29">no</text><rect fill="#FEFECE" filter="url(#f17hjbfewotbn1)" height="34.1328" rx="12.5" ry="12.5" style="stroke: #A80036; stroke-width: 1.5;" width="186" x="10" y="186.6104"/><text fill="#000000" font-family="sans-serif" font-size="12" lengthAdjust="spacingAndGlyphs" textLength="166" x="20" y="208.2119">transformer.getCacheKey(...)</text><rect fill="#FEFECE" filter="url(#f17hjbfewotbn1)" height="34.1328" rx="12.5" ry="12.5" style="stroke: #A80036; stroke-width: 1.5;" width="111" x="255.5" y="186.6104"/><text fill="#000000" font-family="sans-serif" font-size="12" lengthAdjust="spacingAndGlyphs" textLength="91" x="265.5" y="208.2119">use jest built-in</text><polygon fill="#FEFECE" filter="url(#f17hjbfewotbn1)" points="207,226.7432,219,238.7432,207,250.7432,195,238.7432,207,226.7432" style="stroke: #A80036; stroke-width: 1.5;"/><polygon fill="#FEFECE" filter="url(#f17hjbfewotbn1)" points="182.5,270.7432,231.5,270.7432,243.5,282.7432,231.5,294.7432,182.5,294.7432,170.5,282.7432,182.5,270.7432" style="stroke: #A80036; stroke-width: 1.5;"/><text fill="#000000" font-family="sans-serif" font-size="11" lengthAdjust="spacingAndGlyphs" textLength="49" x="182.5" y="286.9004">in cache?</text><text fill="#000000" font-family="sans-serif" font-size="11" lengthAdjust="spacingAndGlyphs" textLength="18" x="152.5" y="280.4229">yes</text><text fill="#000000" font-family="sans-serif" font-size="11" lengthAdjust="spacingAndGlyphs" textLength="14" x="243.5" y="280.4229">no</text><rect fill="#FEFECE" filter="url(#f17hjbfewotbn1)" height="34.1328" rx="12.5" ry="12.5" style="stroke: #A80036; stroke-width: 1.5;" width="123" x="65.5" y="304.7432"/><text fill="#000000" font-family="sans-serif" font-size="12" lengthAdjust="spacingAndGlyphs" textLength="103" x="75.5" y="326.3447">use cache content</text><rect fill="#FEFECE" filter="url(#f17hjbfewotbn1)" height="34.1328" rx="12.5" ry="12.5" style="stroke: #A80036; stroke-width: 1.5;" width="157" x="208.5" y="304.7432"/><text fill="#000000" font-family="sans-serif" font-size="12" lengthAdjust="spacingAndGlyphs" textLength="137" x="218.5" y="326.3447">transformer.process(...)</text><rect fill="#FEFECE" filter="url(#f17hjbfewotbn1)" height="34.1328" rx="12.5" ry="12.5" style="stroke: #A80036; stroke-width: 1.5;" width="98" x="238" y="358.876"/><text fill="#000000" font-family="sans-serif" font-size="12" lengthAdjust="spacingAndGlyphs" textLength="78" x="248" y="380.4775">update cache</text><polygon fill="#FEFECE" filter="url(#f17hjbfewotbn1)" points="207,399.0088,219,411.0088,207,423.0088,195,411.0088,207,399.0088" style="stroke: #A80036; stroke-width: 1.5;"/><polygon fill="#FEFECE" filter="url(#f17hjbfewotbn1)" points="162,104.1328,252,104.1328,264,116.1328,252,128.1328,162,128.1328,150,116.1328,162,104.1328" style="stroke: #A80036; stroke-width: 1.5;"/><text fill="#000000" font-family="sans-serif" font-size="11" lengthAdjust="spacingAndGlyphs" textLength="18" x="211" y="138.7676">yes</text><text fill="#000000" font-family="sans-serif" font-size="11" lengthAdjust="spacingAndGlyphs" textLength="90" x="162" y="120.29">has a transform?</text><text fill="#000000" font-family="sans-serif" font-size="11" lengthAdjust="spacingAndGlyphs" textLength="14" x="264" y="113.8125">no</text><polygon fill="#FEFECE" filter="url(#f17hjbfewotbn1)" points="207,443.0088,219,455.0088,207,467.0088,195,455.0088,207,443.0088" style="stroke: #A80036; stroke-width: 1.5;"/><rect fill="#FEFECE" filter="url(#f17hjbfewotbn1)" height="34.1328" rx="12.5" ry="12.5" style="stroke: #A80036; stroke-width: 1.5;" width="70" x="172" y="487.0088"/><text fill="#000000" font-family="sans-serif" font-size="12" lengthAdjust="spacingAndGlyphs" textLength="50" x="182" y="508.6104">require()</text><ellipse cx="207" cy="551.1416" fill="#FFFFFF" filter="url(#f17hjbfewotbn1)" rx="10" ry="10" style="stroke: #000000; stroke-width: 1.5;"/><line style="stroke: #000000; stroke-width: 2.5;" x1="200.8128" x2="213.1872" y1="544.9544" y2="557.3288"/><line style="stroke: #000000; stroke-width: 2.5;" x1="213.1872" x2="200.8128" y1="544.9544" y2="557.3288"/><line style="stroke: #A80036; stroke-width: 1.5;" x1="207" x2="207" y1="30" y2="50"/><polygon fill="#A80036" points="203,40,207,50,211,40,207,44" style="stroke: #A80036; stroke-width: 1.0;"/><line style="stroke: #A80036; stroke-width: 1.5;" x1="113" x2="103" y1="164.6104" y2="164.6104"/><line style="stroke: #A80036; stroke-width: 1.5;" x1="103" x2="103" y1="164.6104" y2="186.6104"/><polygon fill="#A80036" points="99,176.6104,103,186.6104,107,176.6104,103,180.6104" style="stroke: #A80036; stroke-width: 1.0;"/><line style="stroke: #A80036; stroke-width: 1.5;" x1="301" x2="311" y1="164.6104" y2="164.6104"/><line style="stroke: #A80036; stroke-width: 1.5;" x1="311" x2="311" y1="164.6104" y2="186.6104"/><polygon fill="#A80036" points="307,176.6104,311,186.6104,315,176.6104,311,180.6104" style="stroke: #A80036; stroke-width: 1.0;"/><line style="stroke: #A80036; stroke-width: 1.5;" x1="103" x2="103" y1="220.7432" y2="238.7432"/><line style="stroke: #A80036; stroke-width: 1.5;" x1="103" x2="195" y1="238.7432" y2="238.7432"/><polygon fill="#A80036" points="185,234.7432,195,238.7432,185,242.7432,189,238.7432" style="stroke: #A80036; stroke-width: 1.0;"/><line style="stroke: #A80036; stroke-width: 1.5;" x1="311" x2="311" y1="220.7432" y2="238.7432"/><line style="stroke: #A80036; stroke-width: 1.5;" x1="311" x2="219" y1="238.7432" y2="238.7432"/><polygon fill="#A80036" points="229,234.7432,219,238.7432,229,242.7432,225,238.7432" style="stroke: #A80036; stroke-width: 1.0;"/><line style="stroke: #A80036; stroke-width: 1.5;" x1="287" x2="287" y1="338.876" y2="358.876"/><polygon fill="#A80036" points="283,348.876,287,358.876,291,348.876,287,352.876" style="stroke: #A80036; stroke-width: 1.0;"/><line style="stroke: #A80036; stroke-width: 1.5;" x1="170.5" x2="127" y1="282.7432" y2="282.7432"/><line style="stroke: #A80036; stroke-width: 1.5;" x1="127" x2="127" y1="282.7432" y2="304.7432"/><polygon fill="#A80036" points="123,294.7432,127,304.7432,131,294.7432,127,298.7432" style="stroke: #A80036; stroke-width: 1.0;"/><line style="stroke: #A80036; stroke-width: 1.5;" x1="243.5" x2="287" y1="282.7432" y2="282.7432"/><line style="stroke: #A80036; stroke-width: 1.5;" x1="287" x2="287" y1="282.7432" y2="304.7432"/><polygon fill="#A80036" points="283,294.7432,287,304.7432,291,294.7432,287,298.7432" style="stroke: #A80036; stroke-width: 1.0;"/><line style="stroke: #A80036; stroke-width: 1.5;" x1="127" x2="127" y1="338.876" y2="411.0088"/><line style="stroke: #A80036; stroke-width: 1.5;" x1="127" x2="195" y1="411.0088" y2="411.0088"/><polygon fill="#A80036" points="185,407.0088,195,411.0088,185,415.0088,189,411.0088" style="stroke: #A80036; stroke-width: 1.0;"/><line style="stroke: #A80036; stroke-width: 1.5;" x1="287" x2="287" y1="393.0088" y2="411.0088"/><line style="stroke: #A80036; stroke-width: 1.5;" x1="287" x2="219" y1="411.0088" y2="411.0088"/><polygon fill="#A80036" points="229,407.0088,219,411.0088,229,415.0088,225,411.0088" style="stroke: #A80036; stroke-width: 1.0;"/><line style="stroke: #A80036; stroke-width: 1.5;" x1="207" x2="207" y1="250.7432" y2="270.7432"/><polygon fill="#A80036" points="203,260.7432,207,270.7432,211,260.7432,207,264.7432" style="stroke: #A80036; stroke-width: 1.0;"/><line style="stroke: #A80036; stroke-width: 1.5;" x1="207" x2="207" y1="128.1328" y2="152.6104"/><polygon fill="#A80036" points="203,142.6104,207,152.6104,211,142.6104,207,146.6104" style="stroke: #A80036; stroke-width: 1.0;"/><line style="stroke: #A80036; stroke-width: 1.5;" x1="264" x2="386.5" y1="116.1328" y2="116.1328"/><polygon fill="#A80036" points="382.5,277.8096,386.5,287.8096,390.5,277.8096,386.5,281.8096" style="stroke: #A80036; stroke-width: 1.5;"/><line style="stroke: #A80036; stroke-width: 1.5;" x1="386.5" x2="386.5" y1="116.1328" y2="455.0088"/><line style="stroke: #A80036; stroke-width: 1.5;" x1="386.5" x2="219" y1="455.0088" y2="455.0088"/><polygon fill="#A80036" points="229,451.0088,219,455.0088,229,459.0088,225,455.0088" style="stroke: #A80036; stroke-width: 1.0;"/><line style="stroke: #A80036; stroke-width: 1.5;" x1="207" x2="207" y1="423.0088" y2="443.0088"/><polygon fill="#A80036" points="203,433.0088,207,443.0088,211,433.0088,207,437.0088" style="stroke: #A80036; stroke-width: 1.0;"/><line style="stroke: #A80036; stroke-width: 1.5;" x1="207" x2="207" y1="84.1328" y2="104.1328"/><polygon fill="#A80036" points="203,94.1328,207,104.1328,211,94.1328,207,98.1328" style="stroke: #A80036; stroke-width: 1.0;"/><line style="stroke: #A80036; stroke-width: 1.5;" x1="207" x2="207" y1="467.0088" y2="487.0088"/><polygon fill="#A80036" points="203,477.0088,207,487.0088,211,477.0088,207,481.0088" style="stroke: #A80036; stroke-width: 1.0;"/><line style="stroke: #A80036; stroke-width: 1.5;" x1="207" x2="207" y1="521.1416" y2="541.1416"/><polygon fill="#A80036" points="203,531.1416,207,541.1416,211,531.1416,207,535.1416" style="stroke: #A80036; stroke-width: 1.0;"/><!--
@startuml


start

:require('file');

if (has a transform?) then (yes)
  if (transformer has getCacheKey?) then (yes)
    :transformer.getCacheKey(...);
  else (no)
    :use jest built-in;
  endif

  if (in cache?) then (yes)
    :use cache content;
  else (no)
    :transformer.process(...);
    :update cache;
  endif

else (no)
endif

:require();

end


@enduml

PlantUML version 1.2018.10(Sat Aug 25 19:02:59 CEST 2018)
(GPL source distribution)
Java Runtime: Java(TM) SE Runtime Environment
JVM: Java HotSpot(TM) 64-Bit Server VM
Java Version: 1.8.0_172-b11
Operating System: Mac OS X
OS Version: 10.13.6
Default Encoding: UTF-8
Language: en
Country: TH
--></g></svg>