<?xml version="1.0" encoding="UTF-8" standalone="no"?><svg xmlns="http://www.w3.org/2000/svg" xmlns:xlink="http://www.w3.org/1999/xlink" contentScriptType="application/ecmascript" contentStyleType="text/css" height="571px" preserveAspectRatio="none" style="width:439px;height:571px;" version="1.1" viewBox="0 0 439 571" width="439px" zoomAndPan="magnify"><defs><filter height="300%" id="f17hjbfewotbn1" width="300%" x="-1" y="-1"><feGaussianBlur result="blurOut" stdDeviation="2.0"/><feColorMatrix in="blurOut" result="blurOut2" type="matrix" values="0 0 0 0 0 0 0 0 0 0 0 0 0 0 0 0 0 0 .4 0"/><feOffset dx="4.0" dy="4.0" in="blurOut2" result="blurOut3"/><feBlend in="SourceGraphic" in2="blurOut3" mode="normal"/></filter></defs><g><ellipse cx="221" cy="20" fill="#000000" filter="url(#f17hjbfewotbn1)" rx="10" ry="10" style="stroke: none; stroke-width: 1.0;"/><rect fill="#FEFECE" filter="url(#f17hjbfewotbn1)" height="33.9688" rx="12.5" ry="12.5" style="stroke: #A80036; stroke-width: 1.5;" width="99" x="171.5" y="50"/><text fill="#000000" font-family="sans-serif" font-size="12" lengthAdjust="spacingAndGlyphs" textLength="79" x="181.5" y="71.1387">require('file')</text><polygon fill="#FEFECE" filter="url(#f17hjbfewotbn1)" points="132.5,152.3711,309.5,152.3711,321.5,164.3711,309.5,176.3711,132.5,176.3711,120.5,164.3711,132.5,152.3711" style="stroke: #A80036; stroke-width: 1.5;"/><text fill="#000000" font-family="sans-serif" font-size="11" lengthAdjust="spacingAndGlyphs" textLength="177" x="132.5" y="168.1792">transformer has getCacheKey?</text><text fill="#000000" font-family="sans-serif" font-size="11" lengthAdjust="spacingAndGlyphs" textLength="20" x="100.5" y="161.7769">yes</text><text fill="#000000" font-family="sans-serif" font-size="11" lengthAdjust="spacingAndGlyphs" textLength="14" x="321.5" y="161.7769">no</text><rect fill="#FEFECE" filter="url(#f17hjbfewotbn1)" height="33.9688" rx="12.5" ry="12.5" style="stroke: #A80036; stroke-width: 1.5;" width="201" x="10" y="186.3711"/><text fill="#000000" font-family="sans-serif" font-size="12" lengthAdjust="spacingAndGlyphs" textLength="181" x="20" y="207.5098">transformer.getCacheKey(...)</text><rect fill="#FEFECE" filter="url(#f17hjbfewotbn1)" height="33.9688" rx="12.5" ry="12.5" style="stroke: #A80036; stroke-width: 1.5;" width="116" x="273.5" y="186.3711"/><text fill="#000000" font-family="sans-serif" font-size="12" lengthAdjust="spacingAndGlyphs" textLength="96" x="283.5" y="207.5098">use jest built-in</text><polygon fill="#FEFECE" filter="url(#f17hjbfewotbn1)" points="221,226.3398,233,238.3398,221,250.3398,209,238.3398,221,226.3398" style="stroke: #A80036; stroke-width: 1.5;"/><polygon fill="#FEFECE" filter="url(#f17hjbfewotbn1)" points="194.5,270.3398,247.5,270.3398,259.5,282.3398,247.5,294.3398,194.5,294.3398,182.5,282.3398,194.5,270.3398" style="stroke: #A80036; stroke-width: 1.5;"/><text fill="#000000" font-family="sans-serif" font-size="11" lengthAdjust="spacingAndGlyphs" textLength="53" x="194.5" y="286.1479">in cache?</text><text fill="#000000" font-family="sans-serif" font-size="11" lengthAdjust="spacingAndGlyphs" textLength="20" x="162.5" y="279.7456">yes</text><text fill="#000000" font-family="sans-serif" font-size="11" lengthAdjust="spacingAndGlyphs" textLength="14" x="259.5" y="279.7456">no</text><rect fill="#FEFECE" filter="url(#f17hjbfewotbn1)" height="33.9688" rx="12.5" ry="12.5" style="stroke: #A80036; stroke-width: 1.5;" width="138" x="65" y="304.3398"/><text fill="#000000" font-family="sans-serif" font-size="12" lengthAdjust="spacingAndGlyphs" textLength="118" x="75" y="325.4785">use cache content</text><rect fill="#FEFECE" filter="url(#f17hjbfewotbn1)" height="33.9688" rx="12.5" ry="12.5" style="stroke: #A80036; stroke-width: 1.5;" width="170" x="223" y="304.3398"/><text fill="#000000" font-family="sans-serif" font-size="12" lengthAdjust="spacingAndGlyphs" textLength="150" x="233" y="325.4785">transformer.process(...)</text><rect fill="#FEFECE" filter="url(#f17hjbfewotbn1)" height="33.9688" rx="12.5" ry="12.5" style="stroke: #A80036; stroke-width: 1.5;" width="107" x="254.5" y="358.3086"/><text fill="#000000" font-family="sans-serif" font-size="12" lengthAdjust="spacingAndGlyphs" textLength="87" x="264.5" y="379.4473">update cache</text><polygon fill="#FEFECE" filter="url(#f17hjbfewotbn1)" points="221,398.2773,233,410.2773,221,422.2773,209,410.2773,221,398.2773" style="stroke: #A80036; stroke-width: 1.5;"/><polygon fill="#FEFECE" filter="url(#f17hjbfewotbn1)" points="171.5,103.9688,270.5,103.9688,282.5,115.9688,270.5,127.9688,171.5,127.9688,159.5,115.9688,171.5,103.9688" style="stroke: #A80036; stroke-width: 1.5;"/><text fill="#000000" font-family="sans-serif" font-size="11" lengthAdjust="spacingAndGlyphs" textLength="20" x="225" y="138.1792">yes</text><text fill="#000000" font-family="sans-serif" font-size="11" lengthAdjust="spacingAndGlyphs" textLength="99" x="171.5" y="119.7769">has a transform?</text><text fill="#000000" font-family="sans-serif" font-size="11" lengthAdjust="spacingAndGlyphs" textLength="14" x="282.5" y="113.3745">no</text><polygon fill="#FEFECE" filter="url(#f17hjbfewotbn1)" points="221,442.2773,233,454.2773,221,466.2773,209,454.2773,221,442.2773" style="stroke: #A80036; stroke-width: 1.5;"/><rect fill="#FEFECE" filter="url(#f17hjbfewotbn1)" height="33.9688" rx="12.5" ry="12.5" style="stroke: #A80036; stroke-width: 1.5;" width="75" x="183.5" y="486.2773"/><text fill="#000000" font-family="sans-serif" font-size="12" lengthAdjust="spacingAndGlyphs" textLength="55" x="193.5" y="507.416">require()</text><ellipse cx="221" cy="550.2461" fill="#FFFFFF" filter="url(#f17hjbfewotbn1)" rx="10" ry="10" style="stroke: #000000; stroke-width: 1.5;"/><line style="stroke: #000000; stroke-width: 2.5;" x1="214.8128" x2="227.1872" y1="544.0589" y2="556.4333"/><line style="stroke: #000000; stroke-width: 2.5;" x1="227.1872" x2="214.8128" y1="544.0589" y2="556.4333"/><line style="stroke: #A80036; stroke-width: 1.5;" x1="221" x2="221" y1="30" y2="50"/><polygon fill="#A80036" points="217,40,221,50,225,40,221,44" style="stroke: #A80036; stroke-width: 1.0;"/><line style="stroke: #A80036; stroke-width: 1.5;" x1="120.5" x2="110.5" y1="164.3711" y2="164.3711"/><line style="stroke: #A80036; stroke-width: 1.5;" x1="110.5" x2="110.5" y1="164.3711" y2="186.3711"/><polygon fill="#A80036" points="106.5,176.3711,110.5,186.3711,114.5,176.3711,110.5,180.3711" style="stroke: #A80036; stroke-width: 1.0;"/><line style="stroke: #A80036; stroke-width: 1.5;" x1="321.5" x2="331.5" y1="164.3711" y2="164.3711"/><line style="stroke: #A80036; stroke-width: 1.5;" x1="331.5" x2="331.5" y1="164.3711" y2="186.3711"/><polygon fill="#A80036" points="327.5,176.3711,331.5,186.3711,335.5,176.3711,331.5,180.3711" style="stroke: #A80036; stroke-width: 1.0;"/><line style="stroke: #A80036; stroke-width: 1.5;" x1="110.5" x2="110.5" y1="220.3398" y2="238.3398"/><line style="stroke: #A80036; stroke-width: 1.5;" x1="110.5" x2="209" y1="238.3398" y2="238.3398"/><polygon fill="#A80036" points="199,234.3398,209,238.3398,199,242.3398,203,238.3398" style="stroke: #A80036; stroke-width: 1.0;"/><line style="stroke: #A80036; stroke-width: 1.5;" x1="331.5" x2="331.5" y1="220.3398" y2="238.3398"/><line style="stroke: #A80036; stroke-width: 1.5;" x1="331.5" x2="233" y1="238.3398" y2="238.3398"/><polygon fill="#A80036" points="243,234.3398,233,238.3398,243,242.3398,239,238.3398" style="stroke: #A80036; stroke-width: 1.0;"/><line style="stroke: #A80036; stroke-width: 1.5;" x1="308" x2="308" y1="338.3086" y2="358.3086"/><polygon fill="#A80036" points="304,348.3086,308,358.3086,312,348.3086,308,352.3086" style="stroke: #A80036; stroke-width: 1.0;"/><line style="stroke: #A80036; stroke-width: 1.5;" x1="182.5" x2="134" y1="282.3398" y2="282.3398"/><line style="stroke: #A80036; stroke-width: 1.5;" x1="134" x2="134" y1="282.3398" y2="304.3398"/><polygon fill="#A80036" points="130,294.3398,134,304.3398,138,294.3398,134,298.3398" style="stroke: #A80036; stroke-width: 1.0;"/><line style="stroke: #A80036; stroke-width: 1.5;" x1="259.5" x2="308" y1="282.3398" y2="282.3398"/><line style="stroke: #A80036; stroke-width: 1.5;" x1="308" x2="308" y1="282.3398" y2="304.3398"/><polygon fill="#A80036" points="304,294.3398,308,304.3398,312,294.3398,308,298.3398" style="stroke: #A80036; stroke-width: 1.0;"/><line style="stroke: #A80036; stroke-width: 1.5;" x1="134" x2="134" y1="338.3086" y2="410.2773"/><line style="stroke: #A80036; stroke-width: 1.5;" x1="134" x2="209" y1="410.2773" y2="410.2773"/><polygon fill="#A80036" points="199,406.2773,209,410.2773,199,414.2773,203,410.2773" style="stroke: #A80036; stroke-width: 1.0;"/><line style="stroke: #A80036; stroke-width: 1.5;" x1="308" x2="308" y1="392.2773" y2="410.2773"/><line style="stroke: #A80036; stroke-width: 1.5;" x1="308" x2="233" y1="410.2773" y2="410.2773"/><polygon fill="#A80036" points="243,406.2773,233,410.2773,243,414.2773,239,410.2773" style="stroke: #A80036; stroke-width: 1.0;"/><line style="stroke: #A80036; stroke-width: 1.5;" x1="221" x2="221" y1="250.3398" y2="270.3398"/><polygon fill="#A80036" points="217,260.3398,221,270.3398,225,260.3398,221,264.3398" style="stroke: #A80036; stroke-width: 1.0;"/><line style="stroke: #A80036; stroke-width: 1.5;" x1="221" x2="221" y1="127.9688" y2="152.3711"/><polygon fill="#A80036" points="217,142.3711,221,152.3711,225,142.3711,221,146.3711" style="stroke: #A80036; stroke-width: 1.0;"/><line style="stroke: #A80036; stroke-width: 1.5;" x1="282.5" x2="413" y1="115.9688" y2="115.9688"/><polygon fill="#A80036" points="409,277.3242,413,287.3242,417,277.3242,413,281.3242" style="stroke: #A80036; stroke-width: 1.5;"/><line style="stroke: #A80036; stroke-width: 1.5;" x1="413" x2="413" y1="115.9688" y2="454.2773"/><line style="stroke: #A80036; stroke-width: 1.5;" x1="413" x2="233" y1="454.2773" y2="454.2773"/><polygon fill="#A80036" points="243,450.2773,233,454.2773,243,458.2773,239,454.2773" style="stroke: #A80036; stroke-width: 1.0;"/><line style="stroke: #A80036; stroke-width: 1.5;" x1="221" x2="221" y1="422.2773" y2="442.2773"/><polygon fill="#A80036" points="217,432.2773,221,442.2773,225,432.2773,221,436.2773" style="stroke: #A80036; stroke-width: 1.0;"/><line style="stroke: #A80036; stroke-width: 1.5;" x1="221" x2="221" y1="83.9688" y2="103.9688"/><polygon fill="#A80036" points="217,93.9688,221,103.9688,225,93.9688,221,97.9688" style="stroke: #A80036; stroke-width: 1.0;"/><line style="stroke: #A80036; stroke-width: 1.5;" x1="221" x2="221" y1="466.2773" y2="486.2773"/><polygon fill="#A80036" points="217,476.2773,221,486.2773,225,476.2773,221,480.2773" style="stroke: #A80036; stroke-width: 1.0;"/><line style="stroke: #A80036; stroke-width: 1.5;" x1="221" x2="221" y1="520.2461" y2="540.2461"/><polygon fill="#A80036" points="217,530.2461,221,540.2461,225,530.2461,221,534.2461" style="stroke: #A80036; stroke-width: 1.0;"/><!--
@startuml


start

:require('file');

if (has a transform?) then (yes)
  if (transformer has getCacheKey?) then (yes)
    :transformer.getCacheKey(...);
  else (no)
    :use jest built-in;
  endif

  if (in cache?) then (yes)
    :use cache content;
  else (no)
    :transformer.process(...);
    :update cache;
  endif

else (no)
endif

:require();

end


@enduml

PlantUML version 1.2017.15(Mon Jul 03 16:45:34 UTC 2017)
(GPL source distribution)
Java Runtime: OpenJDK Runtime Environment
JVM: OpenJDK 64-Bit Server VM
Java Version: 1.8.0_252-b14
Operating System: Linux
OS Version: 5.3.0-1028-azure
Default Encoding: UTF-8
Language: en
Country: null
--></g></svg>